<svg xmlns="http://www.w3.org/2000/svg" width="20" height="16" fill="none" viewBox="0 0 20 16">
    <path fill="#FFFFFF"
          d="M11.056 1.69 10.32.198a.356.356 0 0 0-.638 0L8.944 1.69l-1.635.234a.364.364 0 0 0-.2.619L8.297 3.7l-.281 1.628a.365.365 0 0 0 .525.381l1.465-.775 1.457.763a.364.364 0 0 0 .525-.381l-.282-1.629 1.188-1.143a.365.365 0 0 0-.2-.619l-1.635-.234zM8 8c-.553 0-1 .447-1 1v6c0 .553.447 1 1 1h4c.553 0 1-.447 1-1V9c0-.553-.447-1-1-1zm-7 2c-.553 0-1 .447-1 1v4c0 .553.447 1 1 1h4c.553 0 1-.447 1-1v-4c0-.553-.447-1-1-1zm13 3v2c0 .553.447 1 1 1h4c.553 0 1-.447 1-1v-2c0-.553-.447-1-1-1h-4c-.553 0-1 .447-1 1">
    </path>
</svg>
